# xmcd CD database file
# Generated: Wed Jan 12 22:32:26 2005 by KSCD
# 
# Track frame offsets:
#       150
#       14880
#       26642
#       38990
#       50810
#       64872
#       77472
#       89277
#       101990
#       116582
#       130107
#       144075
#       159667
#       171842
#       185652
#       198480
#       210077
#       225742
#       238892
#       250820
#       262350
#       274432
#
# Disc length: 3826 seconds
#
# Revision: 1
# Processed by: cddbd v1.5.1PL0 Copyright (c) Steve Scherf et al.
# Submitted via: Kscd 1.3.3
#
DISCID=490ef016
DTITLE=Big Maybelle - The OKeh Sessions
DYEAR=1900
DGENRE=
TTITLE0=Just want your love
TTITLE1=So good to my baby
TTITLE2=Gabbin' blues
TTITLE3=My country man
TTITLE4=Rain down rain
TTITLE5=Way back home
TTITLE6=Stay away from my Sam
TTITLE7=Jinny Mule
TTITLE8=Maybelle's Blues
TTITLE9=I've got a feeling
TTITLE10=You'll never know
TTITLE11=No more trouble out of me
TTITLE12=My big mistake
TTITLE13=Ain't no use
TTITLE14=I'm gettin' 'long alright
TTITLE15=You'll be sorry
TTITLE16=Hair dressin' women
TTITLE17=One monkey don't stop no show
TTITLE18=Don't leave poor me
TTITLE19=Ain't to be played with
TTITLE20=New kind of mambo
TTITLE21=Whole lot-ta shakin' goin' on
EXTD=
EXTT0=
EXTT1=
EXTT2=
EXTT3=
EXTT4=
EXTT5=
EXTT6=
EXTT7=
EXTT8=
EXTT9=
EXTT10=
EXTT11=
EXTT12=
EXTT13=
EXTT14=
EXTT15=
EXTT16=
EXTT17=
EXTT18=
EXTT19=
EXTT20=
EXTT21=
PLAYORDER=
